# xmcd CD database file
#
# Track frame offsets:
#	150
#	12257
#	23698
#	37130
#	48667
#	64222
#	76776
#	92451
#	107983
#	120798
#	134785
#	146089
#	157516
#	170008
#	185488
#	199362
#	213569
#	229474
#	244243
#	256167
#	271286
#
# Disc length: 3898 seconds
#
# Revision: 0
# Processed by: cddbd v1.5.2PL0 Copyright (c) Steve Scherf et al.
# Submitted via: CDex 1.60beta1-cs1
#
DISCID=2d0f3815
DTITLE=Banda Clave Três - Sertanejo classe (A)
DYEAR=2006
DGENRE=Country
TTITLE0=Seguindo teus passos
TTITLE1=Vestido de seda
TTITLE2=Telefone mudo
TTITLE3=Fio de cabelo
TTITLE4=Porta do mundo
TTITLE5=Mala amarela
TTITLE6=Meu reino encantado
TTITLE7=Boate azul
TTITLE8=Barco de papel
TTITLE9=Cabecinha no ombro
TTITLE10=Cuitelinho
TTITLE11=Mercedita
TTITLE12=Sorriso mudo
TTITLE13=Roupa de lua de mél
TTITLE14=Noite do nosso amor
TTITLE15=Do outro lado da cidade
TTITLE16=Canarinho prisioneiro
TTITLE17=Seu amor ainda é tudo
TTITLE18=Só mais uma vez
TTITLE19=24 horas de amor
TTITLE20=Pout-tropeiro, siganinha e vinte anos
EXTD=YEAR: 2006
EXTT0=
EXTT1=
EXTT2=
EXTT3=
EXTT4=
EXTT5=
EXTT6=
EXTT7=
EXTT8=
EXTT9=
EXTT10=
EXTT11=
EXTT12=
EXTT13=
EXTT14=
EXTT15=
EXTT16=
EXTT17=
EXTT18=
EXTT19=
EXTT20=
PLAYORDER=
